<svg xmlns="http://www.w3.org/2000/svg" xml:space="preserve" width="2000" height="100" viewBox="0 0 100 100">
  <circle cx="50" cy="50" r="45.905" fill="#9FB423" />
  <path fill="#FFF" d="M81.462 53.872v-7.865l-9.4-3.917a20.822 20.822 0 0 0-.877-2.151l3.795-9.447-5.561-5.561-9.363 3.855a21.903 21.903 0 0 0-2.196-.906l-3.987-9.339h-7.865l-3.887 9.31c-.783.275-1.535.567-2.281.921l-9.347-3.756-5.56 5.561 3.81 9.263c-.37.76-.669 1.535-.953 2.335l-9.248 3.955v7.865l9.255 3.856c.285.8.592 1.575.96 2.335l-3.74 9.324 5.561 5.561 9.286-3.825a21.52 21.52 0 0 0 2.289.906l3.978 9.31h7.865l3.894-9.356a26.211 26.211 0 0 0 2.19-.906l9.431 3.78 5.561-5.562-3.87-9.385c.33-.707.598-1.422.86-2.151zM49.941 61.799c-6.514 0-11.798-5.284-11.798-11.798 0-6.513 5.284-11.797 11.798-11.797 6.513 0 11.797 5.284 11.797 11.797 0 6.514-5.284 11.798-11.797 11.798"/>
</svg>
