<svg xmlns="http://www.w3.org/2000/svg" width="1200" height="630" viewBox="0 0 1200 630" fill="none">
  <rect width="1200" height="630" rx="36" fill="#F7FAFC"/>
  <rect x="24" y="24" width="1152" height="582" rx="32" fill="url(#bg)"/>
  <rect x="78" y="92" width="1044" height="446" rx="28" fill="white" fill-opacity="0.92"/>
  <g transform="translate(118 138)">
    <circle cx="52" cy="52" r="52" fill="#9FB423"/>
    <path fill="#FFF" d="M86.842 56.027v-8.18l-9.776-4.074a21.677 21.677 0 0 0-.913-2.238l3.949-9.85-5.786-5.786-9.738 4.016a22.817 22.817 0 0 0-2.284-.943L58.147 19.24h-8.18l-4.043 9.701c-.814.286-1.597.59-2.373.958l-9.722-3.906-5.787 5.786 3.964 9.657c-.385.792-.696 1.598-.991 2.43l-9.619 4.113v8.18l9.626 4.01c.296.832.616 1.638 1 2.429l-3.89 9.721 5.786 5.786 9.658-3.985c.782.372 1.576.677 2.381.943l4.137 9.702h8.18l4.05-9.75a27.271 27.271 0 0 0 2.278-.943l9.809 3.937 5.786-5.787-4.026-9.784c.343-.736.621-1.48.894-2.238ZM54.05 64.279c-6.777 0-12.273-5.496-12.273-12.273 0-6.776 5.496-12.272 12.273-12.272 6.776 0 12.272 5.496 12.272 12.272 0 6.777-5.496 12.273-12.272 12.273Z"/>
  </g>
  <text x="246" y="206" fill="#4C4C4C" font-family="Arial, Helvetica, sans-serif" font-size="90" font-weight="600" letter-spacing="-2">torqbrain</text>
  <circle cx="705" cy="180" r="8" fill="#9FB423"/>
  <text x="118" y="320" fill="#0F172A" font-family="Arial, Helvetica, sans-serif" font-size="78" font-weight="700" letter-spacing="-2">InvoiceHub</text>
  <text x="118" y="367" fill="#2B61A8" font-family="Arial, Helvetica, sans-serif" font-size="24" font-weight="700" letter-spacing="7">BY TORQBRAIN</text>
  <text x="118" y="438" fill="#475569" font-family="Arial, Helvetica, sans-serif" font-size="34" font-weight="400">
    <tspan x="118" dy="0">Professional invoicing for modern businesses with customers,</tspan>
    <tspan x="118" dy="48">products, payments, and inventory in one workspace.</tspan>
  </text>
  <rect x="118" y="486" width="964" height="1" fill="#E2E8F0"/>
  <text x="118" y="546" fill="#1E3A5F" font-family="Arial, Helvetica, sans-serif" font-size="28" font-weight="600">bills.torqbrain.com</text>
  <defs>
    <radialGradient id="bg" cx="0" cy="0" r="1" gradientUnits="userSpaceOnUse" gradientTransform="translate(138 66) rotate(25.305) scale(708.424 1192.62)">
      <stop stop-color="#E7F1FF"/>
      <stop offset="0.55" stop-color="#F7FAFC"/>
      <stop offset="1" stop-color="#EEF6F4"/>
    </radialGradient>
  </defs>
</svg>
