<svg xmlns="http://www.w3.org/2000/svg" xml:space="preserve" width="2000" height="100" data-version="2" data-id="lg_6GOcfjjmymD2M5Gw2n" viewBox="0 0 612 100" x="0" y="0"><circle r="50" fill="#9FB423" transform="translate(51.7 47)scale(.9181)"/><g transform="translate(360.25 50.75)"><filter id="a" width="140%" height="140%" x="-20%" y="-20%"><feGaussianBlur in="SourceAlpha"/><feOffset result="oBlur"/><feFlood flood-color="#FFF" flood-opacity="1"/><feComposite in2="oBlur" operator="in"/><feMerge><feMergeNode/><feMergeNode in="SourceGraphic"/></feMerge></filter><g filter="url(#a)"><path fill="#4C4C4C" d="M-220.715 30.82q-8.8 0-12.93-4.72-4.14-4.71-4.14-14.68v-26.6h-8.16l.21-10.6h5.41q3.07 0 4.56-.96 1.48-.95 1.8-3.39l1.27-8.05h7.74v12.29h14.63v11.13h-14.63v25.65q0 3.93 1.85 5.73 1.86 1.8 5.57 1.8 2.01 0 3.97-.48 1.97-.47 3.66-1.64v12.72q-3.28 1.06-5.99 1.43-2.7.37-4.82.37" paint-order="stroke"/><rect width="36.04" height="69" x="-18.02" y="-34.5" fill="none" rx="0" ry="0" transform="translate(-227.43 -3.18)"/><path fill="#4C4C4C" d="M-175.875 30.93q-8.16 0-14.42-3.34-6.25-3.34-9.8-9.86-3.55-6.52-3.55-16.06 0-9.75 3.65-16.16 3.66-6.42 9.91-9.6 6.26-3.18 14.1-3.18 8.16 0 14.42 3.29 6.25 3.29 9.86 9.8 3.6 6.52 3.6 16.17 0 9.75-3.6 16.22-3.61 6.46-9.92 9.59-6.3 3.13-14.25 3.13m.53-10.18q4.45 0 7.52-2.07 3.08-2.06 4.72-6.2 1.64-4.13 1.64-9.85 0-6.05-1.75-10.34-1.74-4.29-4.98-6.62-3.23-2.34-8.11-2.34-4.24 0-7.42 2.07-3.18 2.07-4.82 6.1-1.64 4.02-1.64 9.96 0 9.33 3.97 14.31 3.98 4.98 10.87 4.98" paint-order="stroke"/><rect width="55.54" height="58.2" x="-27.77" y="-29.1" fill="none" rx="0" ry="0" transform="translate(-175.38 2.33)"/><path fill="#4C4C4C" d="M-137.185 29.55v-55.44h11.23l-.21 19.08h1.91q.95-6.78 2.97-11.29 2.01-4.5 5.62-6.78 3.6-2.28 8.9-2.28 1.06 0 2.28.11 1.22.1 2.7.53l-.53 14.09q-1.69-.63-3.44-.9-1.75-.26-3.24-.26-4.13 0-7.15 2.12-3.02 2.12-4.88 5.99-1.85 3.87-2.81 9.17v25.86Z" paint-order="stroke"/><rect width="35.4" height="56.71" x="-17.7" y="-28.36" fill="none" rx="0" ry="0" transform="translate(-118.98 1.7)"/><path fill="#4C4C4C" d="M-55.885 47.15V31.78q0-2.65.37-5.52.37-2.86.9-5.88t1.06-5.99h-1.91q-1.48 4.88-3.87 8.64-2.38 3.76-6.04 5.83-3.65 2.07-9.27 2.07-7.32 0-12.25-3.77-4.92-3.76-7.47-10.28-2.54-6.52-2.54-14.78 0-8.8 2.7-15.37 2.7-6.58 7.9-10.29 5.19-3.71 12.61-3.71 5.2 0 8.91 1.96 3.71 1.97 6.09 5.62 2.39 3.66 3.34 8.85h1.91l-.32-14.94h11.34v72.93Zm-14.1-27.14q2.76 0 5.04-1.06 2.28-1.06 3.97-2.92 1.7-1.85 2.86-4.08 1.17-2.22 1.75-4.55.59-2.34.59-4.46v-1.8q0-2.86-.91-5.88-.9-3.02-2.65-5.57-1.74-2.54-4.39-4.13-2.65-1.59-6.15-1.59-4.03 0-6.95 2.23-2.91 2.22-4.5 6.25-1.59 4.03-1.59 9.65 0 5.19 1.54 9.22 1.53 4.03 4.4 6.36 2.86 2.33 6.99 2.33" paint-order="stroke"/><rect width="54.48" height="74.42" x="-27.24" y="-37.21" fill="none" rx="0" ry="0" transform="translate(-69.17 10.44)"/><path fill="#4C4C4C" d="M3.365 30.93q-5.3 0-9.11-2.07-3.82-2.07-6.2-5.88-2.39-3.82-3.45-9.12h-1.91l.11 15.69h-11.24v-75.26h13.36v17.91q0 2.55-.32 5.52-.32 2.96-.85 6.09t-1.16 6.31h2.22q1.38-5.09 3.66-8.96 2.28-3.87 5.99-6.09 3.71-2.23 9.12-2.23 6.89 0 11.92 3.66 5.04 3.65 7.79 10.17 2.76 6.52 2.76 15.43 0 8.69-2.71 15.15-2.7 6.47-7.73 10.07-5.04 3.61-12.25 3.61M-.875 19.9q3.93 0 6.89-2.22 2.97-2.23 4.51-6.26 1.54-4.02 1.54-9.54 0-5.3-1.49-9.32-1.48-4.03-4.34-6.36-2.87-2.34-7-2.34-2.76 0-5.09 1.12-2.33 1.11-4.03 2.96-1.69 1.86-2.86 4.09-1.16 2.22-1.75 4.61-.58 2.38-.58 4.4v1.8q0 2.65.85 5.67t2.65 5.56q1.8 2.55 4.45 4.19 2.65 1.64 6.25 1.64" paint-order="stroke"/><rect width="54.49" height="76.64" x="-27.25" y="-38.32" fill="none" rx="0" ry="0" transform="translate(-.69 -6.89)"/><path fill="#4C4C4C" d="M37.075 29.55v-55.44h11.24l-.21 19.08h1.9q.96-6.78 2.97-11.29 2.02-4.5 5.62-6.78 3.6-2.28 8.9-2.28 1.06 0 2.28.11 1.22.1 2.71.53l-.53 14.09q-1.7-.63-3.45-.9-1.75-.26-3.23-.26-4.14 0-7.16 2.12-3.02 2.12-4.87 5.99-1.86 3.87-2.81 9.17v25.86Z" paint-order="stroke"/><rect width="35.41" height="56.71" x="-17.7" y="-28.36" fill="none" rx="0" ry="0" transform="translate(55.28 1.7)"/><path fill="#9FB423" d="M92.725 30.93q-4.56 0-8.16-1.75-3.6-1.75-5.67-5.25t-2.07-8.69q0-4.35 1.64-7.42 1.65-3.07 4.93-5.04 3.29-1.96 8.17-3.28 4.87-1.33 11.44-2.28 3.61-.53 5.89-1.06t3.34-1.64q1.06-1.12 1.06-3.34 0-3.29-2.28-5.67-2.28-2.39-7.37-2.39-3.07 0-5.88 1.06t-4.83 3.34q-2.01 2.28-2.75 5.99l-11.98-3.71q1.17-4.24 3.39-7.37 2.23-3.12 5.51-5.35 3.29-2.23 7.53-3.29t9.33-1.06q7.74 0 12.72 2.49 4.98 2.5 7.42 7.74 2.44 5.25 2.44 13.52V6.87q0 3.6.15 7.47.16 3.87.43 7.74.26 3.87.69 7.47h-11.98q-.42-2.97-.74-6.36t-.53-6.89h-1.7q-1.48 4.03-4.24 7.37-2.75 3.34-6.73 5.3-3.97 1.96-9.17 1.96m5.3-9.86q2.12 0 4.29-.74 2.18-.74 4.3-2.23 2.12-1.48 3.92-3.66 1.8-2.17 3.07-5.14l-.21-9.43 2.55.42q-1.81 1.49-4.46 2.34-2.65.84-5.56 1.27-2.92.42-5.83 1-2.92.59-5.25 1.49t-3.71 2.54q-1.38 1.65-1.38 4.51 0 3.6 2.34 5.62 2.33 2.01 5.93 2.01" paint-order="stroke"/><rect width="50.99" height="58.2" x="-25.5" y="-29.1" fill="none" rx="0" ry="0" transform="translate(102.82 2.33)"/><path fill="#9FB423" d="M139.895 29.55v-55.44h13.36v55.44Zm6.68-64.13q-4.03 0-6.2-1.75t-2.17-5.03q0-3.29 2.17-5.04t6.2-1.75q4.24 0 6.36 1.7 2.12 1.69 2.12 5.09 0 3.28-2.17 5.03-2.18 1.75-6.31 1.75" paint-order="stroke"/><rect width="16.85" height="77.7" x="-8.43" y="-38.85" fill="none" rx="0" ry="0" transform="translate(147.13 -8.8)"/><path fill="#4C4C4C" d="M167.245 29.55v-55.44h11.13l-.32 16.96h1.91q1.48-6.25 3.97-10.28 2.5-4.03 6.42-6.04 3.92-2.02 9.11-2.02 9.44 0 14.37 6.68t4.93 20.67v29.47h-13.47V1.46q0-9.01-2.7-13.2-2.7-4.18-8-4.18-4.45 0-7.53 2.8-3.07 2.81-4.72 7.42-1.64 4.62-1.74 10.13v25.12Z" paint-order="stroke"/><rect width="51.52" height="56.82" x="-25.76" y="-28.41" fill="none" rx="0" ry="0" transform="translate(193.5 1.64)"/><path fill="#9FB423" d="M235.825 30.82q-4.34 0-6.57-1.91-2.23-1.9-2.23-5.93 0-4.14 2.23-6.04 2.23-1.91 6.57-1.91 4.56 0 6.84 1.91 2.28 1.9 2.28 6.04 0 7.84-9.12 7.84" paint-order="stroke"/><rect width="17.92" height="15.79" x="-8.96" y="-7.89" fill="none" rx="0" ry="0" transform="translate(236.49 23.43)"/></g></g><path fill="#FFF" d="M83.162 50.872v-7.865l-9.4-3.917a20.822 20.822 0 0 0-.877-2.151l3.795-9.447-5.561-5.561-9.363 3.855a21.903 21.903 0 0 0-2.196-.906l-3.987-9.339h-7.865l-3.887 9.31c-.783.275-1.535.567-2.281.921l-9.347-3.756-5.56 5.561 3.81 9.263c-.37.76-.669 1.535-.953 2.335l-9.248 3.955v7.865l9.255 3.856c.285.8.592 1.575.96 2.335l-3.74 9.324 5.561 5.561 9.286-3.825a21.52 21.52 0 0 0 2.289.906l3.978 9.31h7.865l3.894-9.356a26.211 26.211 0 0 0 2.19-.906l9.431 3.78 5.561-5.562-3.87-9.385c.33-.707.598-1.422.86-2.151zm-31.521 7.927c-6.514 0-11.798-5.284-11.798-11.798 0-6.513 5.284-11.797 11.798-11.797 6.513 0 11.797 5.284 11.797 11.797 0 6.514-5.284 11.798-11.797 11.798"/></svg>
